<svg width="324" height="331" viewBox="0 0 324 331" fill="none" xmlns="http://www.w3.org/2000/svg">
<path fill-rule="evenodd" clip-rule="evenodd" d="M162 331H51L0 111H162H324L273 331H162ZM247 143H76V175H247V143ZM247 197H76V229H247V197ZM76 251H247V283H76V251Z" fill="black"/>
<path fill-rule="evenodd" clip-rule="evenodd" d="M323.746 111H0.253967C3.79688 62.3543 43.967 24 93 24C96.0749 24 99.1149 24.1508 102.113 24.4456C118.454 9.25784 140.169 0 164 0C187.68 0 209.27 9.14076 225.575 24.1573C227.37 24.0529 229.179 24 231 24C280.033 24 320.203 62.3543 323.746 111Z" fill="#EE2662"/>
</svg>
