<?xml version="1.0" encoding="UTF-8"?>
<svg width="30px" height="24px" viewBox="0 0 30 24" version="1.1" xmlns="http://www.w3.org/2000/svg" xmlns:xlink="http://www.w3.org/1999/xlink">
    <!-- Generator: Sketch 43.2 (39069) - http://www.bohemiancoding.com/sketch -->
    <title>open96</title>
    <desc>Created with Sketch.</desc>
    <defs></defs>
    <g id="Boostrap3-grid-system-layouts" stroke="none" stroke-width="1" fill="none" fill-rule="evenodd">
        <g id="Desktop-Copy-4" transform="translate(-230.000000, -628.000000)" fill="#000000">
            <g id="open96" transform="translate(230.000000, 629.000000)">
                <path d="M29.7198077,11.4868947 C29.4903846,11.0048246 29.1398077,10.6352632 28.6701923,10.3787895 C28.2001923,10.1219298 27.6832692,9.99359649 27.1192308,9.99359649 L24.1107692,9.99359649 L24.1107692,7.47787719 C24.1107692,6.51354386 23.7659615,5.68545614 23.0767308,4.99361404 C22.3871154,4.30177193 21.5619231,3.95594737 20.6011538,3.95594737 L12.0778846,3.95594737 L12.0778846,3.45284211 C12.0778846,2.48850877 11.7330769,1.66042105 11.0438462,0.96877193 C10.3544231,0.276929825 9.52923077,-0.0690877193 8.56826923,-0.0690877193 L3.55461538,-0.0690877193 C2.59365385,-0.0690877193 1.76846154,0.276929825 1.07903846,0.96877193 C0.389615385,1.66042105 0.045,2.48850877 0.045,3.45284211 L0.045,18.5469649 C0.045,19.5111053 0.389615385,20.339193 1.07903846,21.0308421 C1.76846154,21.7228772 2.59365385,22.0688947 3.55461538,22.0688947 L20.6015385,22.0688947 C21.3011538,22.0688947 22.0323077,21.8878772 22.795,21.5262281 C23.5575,21.1647719 24.1630769,20.7060526 24.6123077,20.1504561 L29.2344231,14.443193 C29.7148077,13.8352982 29.9548077,13.2065614 29.9548077,12.5564035 C29.955,12.1789298 29.8767308,11.8228772 29.7198077,11.4868947 L29.7198077,11.4868947 Z M2.05057692,3.45303509 C2.05057692,3.03387719 2.19673077,2.6774386 2.48923077,2.38391228 C2.78153846,2.09057895 3.13673077,1.9437193 3.55461538,1.9437193 L8.56846154,1.9437193 C8.98634615,1.9437193 9.34134615,2.09038596 9.63384615,2.38391228 C9.92615385,2.6774386 10.0725,3.03387719 10.0725,3.45303509 L10.0725,4.4594386 C10.0725,4.87878947 10.2188462,5.23522807 10.5111538,5.5285614 C10.8034615,5.82189474 11.1586538,5.96875439 11.5765385,5.96875439 L20.6013462,5.96875439 C21.0190385,5.96875439 21.3744231,6.11561404 21.6667308,6.40894737 C21.9590385,6.7022807 22.1053846,7.0587193 22.1053846,7.47807018 L22.1053846,9.99378947 L10.0725,9.99378947 C9.36230769,9.99378947 8.63096154,10.174614 7.87884615,10.5362632 C7.12673077,10.8979123 6.52096154,11.3564386 6.06134615,11.9122281 L2.05057692,16.8647368 L2.05057692,3.45303509 L2.05057692,3.45303509 Z M27.6675,13.1697018 L23.0611538,18.8771579 C22.8001923,19.2019474 22.4292308,19.4798421 21.9486538,19.7100702 C21.4682692,19.9406842 21.0190385,20.0560877 20.6013462,20.0560877 L3.55461538,20.0560877 C3.00096154,20.0560877 2.72423077,19.8725614 2.72423077,19.5057018 C2.72423077,19.338 2.81826923,19.1284211 3.00634615,18.8765789 L7.61269231,13.1693158 C7.88423077,12.8443333 8.2575,12.5693333 8.73288462,12.3439298 C9.20807692,12.1185263 9.65461538,12.0058246 10.0725,12.0058246 L27.1192308,12.0058246 C27.6728846,12.0058246 27.9496154,12.1895439 27.9496154,12.5562105 C27.9496154,12.7347193 27.8557692,12.9392807 27.6675,13.1697018 L27.6675,13.1697018 Z" id="Shape"></path>
            </g>
        </g>
    </g>
</svg>