<?xml version="1.0" encoding="UTF-8"?>
<svg width="475" height="123" viewBox="0 0 475 123" fill="none" xmlns="http://www.w3.org/2000/svg">
<path d="M48.152 122.44C31.928 122.44 19.88 118.888 12.008 111.784C4.13601 104.584 0.200012 93.256 0.200012 77.8C0.200012 68.872 1.68801 61.096 4.66401 54.472C7.64001 47.752 12.536 42.52 19.352 38.776C26.168 35.032 35.288 33.16 46.712 33.16C54.776 33.16 61.928 33.976 68.168 35.608C74.504 37.144 79.016 38.728 81.704 40.36V41.8L83.144 49C81.416 47.56 78.824 46.072 75.368 44.536C72.008 43 67.928 41.704 63.128 40.648C58.328 39.496 52.952 38.92 47 38.92C33.464 38.92 23.576 42.376 17.336 49.288C11.096 56.104 7.97601 65.608 7.97601 77.8C7.97601 90.28 11.144 99.88 17.48 106.6C23.912 113.224 34.664 116.536 49.736 116.536C58.856 116.536 66.248 115.576 71.912 113.656C77.576 111.64 81.32 109.72 83.144 107.896V109.48L84.584 115.24C82.568 116.776 78.44 118.36 72.2 119.992C66.056 121.624 58.04 122.44 48.152 122.44Z" fill="white"/>
<path d="M126.025 122.44C115.561 122.44 107.929 120.712 103.129 117.256C98.4245 113.704 96.0725 108.424 96.0725 101.416C96.0725 94.504 98.8085 89.176 104.281 85.432C109.753 81.688 118.345 79.816 130.057 79.816C136.681 79.816 142.057 80.392 146.185 81.544C150.313 82.6 153.481 83.8 155.689 85.144C157.897 86.488 159.385 87.544 160.153 88.312C160.153 81.112 159.385 75.304 157.849 70.888C156.313 66.376 153.481 63.112 149.353 61.096C145.225 58.984 139.273 57.928 131.497 57.928C127.081 57.928 122.809 58.36 118.681 59.224C114.649 59.992 111.097 61 108.025 62.248C105.049 63.496 102.985 64.696 101.833 65.848V64.408L100.393 57.928C100.873 57.64 102.361 57.064 104.857 56.2C107.353 55.24 110.905 54.328 115.513 53.464C120.217 52.6 125.929 52.168 132.649 52.168C145.129 52.168 154.009 54.76 159.289 59.944C164.665 65.032 167.353 72.904 167.353 83.56V112.36C167.353 115.048 167.641 117.016 168.217 118.264C168.889 119.416 169.561 120.328 170.233 121H160.153V113.656L160.441 110.92L160.153 110.776C159.577 111.448 158.617 112.456 157.273 113.8C155.929 115.048 153.961 116.344 151.369 117.688C148.873 119.032 145.561 120.136 141.433 121C137.401 121.96 132.265 122.44 126.025 122.44ZM127.897 116.536C133.849 116.536 139.225 115.816 144.025 114.376C148.921 112.936 152.809 110.968 155.689 108.472C158.665 105.88 160.153 103 160.153 99.832C160.153 95.8 157.849 92.44 153.241 89.752C148.633 86.968 141.193 85.576 130.921 85.576C112.585 85.576 103.417 90.856 103.417 101.416C103.417 106.696 105.337 110.536 109.177 112.936C113.017 115.336 119.257 116.536 127.897 116.536Z" fill="white"/>
<path d="M183.146 121C183.818 121 184.442 120.328 185.018 118.984C185.69 117.64 186.026 115.432 186.026 112.36V30.28C186.026 27.208 185.69 25.048 185.018 23.8C184.442 22.456 183.818 21.736 183.146 21.64H193.514V79.24C193.514 81.352 193.754 82.648 194.234 83.128C194.81 83.512 196.538 83.704 199.418 83.704C206.33 83.704 212.474 81.784 217.85 77.944C223.322 74.104 227.162 68.872 229.37 62.248C230.426 59.176 230.858 57.016 230.666 55.768C230.57 54.424 230.282 53.704 229.802 53.608H244.346C244.058 53.608 243.386 54.28 242.33 55.624C241.37 56.968 240.074 59.224 238.442 62.392C235.082 68.824 231.29 74.056 227.066 78.088C222.938 82.12 218.042 84.808 212.378 86.152C217.85 87.4 222.41 89.224 226.058 91.624C229.802 93.928 233.114 96.808 235.994 100.264C238.97 103.72 241.85 107.752 244.634 112.36C246.554 115.432 248.234 117.64 249.674 118.984C251.21 120.328 252.314 121 252.986 121H237.146C237.722 120.904 237.914 120.088 237.722 118.552C237.626 117.016 236.666 114.472 234.842 110.92C233.21 107.56 230.858 104.248 227.786 100.984C224.714 97.624 220.826 94.888 216.122 92.776C211.514 90.568 205.946 89.464 199.418 89.464C196.442 89.464 194.714 89.896 194.234 90.76C193.754 91.624 193.514 93.16 193.514 95.368V112.36C193.514 115.432 193.802 117.64 194.378 118.984C195.05 120.328 195.722 121 196.394 121H183.146Z" fill="white"/>
<path d="M294.411 122.44C284.619 122.44 276.891 120.952 271.227 117.976C265.659 114.904 261.723 110.728 259.419 105.448C257.115 100.168 255.963 94.168 255.963 87.448C255.963 75.736 259.179 66.952 265.611 61.096C272.043 55.144 280.683 52.168 291.531 52.168C297.867 52.168 303.147 53.08 307.371 54.904C311.691 56.728 315.051 59.176 317.451 62.248C319.947 65.224 321.723 68.584 322.779 72.328C323.835 76.072 324.363 79.912 324.363 83.848V88.456C324.267 88.168 322.971 87.88 320.475 87.592C318.075 87.208 314.091 87.016 308.523 87.016H263.019C263.019 96.424 265.515 103.72 270.507 108.904C275.595 114.088 283.563 116.68 294.411 116.68C301.899 116.68 307.947 115.768 312.555 113.944C317.163 112.12 320.139 110.344 321.483 108.616V110.056L322.923 115.24C321.579 116.776 318.507 118.36 313.707 119.992C308.907 121.624 302.475 122.44 294.411 122.44ZM268.491 81.112H316.731C316.731 77.08 315.915 73.288 314.283 69.736C312.747 66.184 310.107 63.352 306.363 61.24C302.715 59.032 297.771 57.928 291.531 57.928C285.675 57.928 280.731 59.032 276.699 61.24C272.667 63.352 269.595 65.992 267.483 69.16C265.467 72.232 264.459 75.256 264.459 78.232C264.459 79.192 264.747 79.912 265.323 80.392C265.899 80.872 266.955 81.112 268.491 81.112Z" fill="white"/>
<path d="M377.92 37.624C375.904 37.624 374.32 37.048 373.168 35.896C372.112 34.744 371.584 33.4 371.584 31.864C371.584 30.232 372.112 28.888 373.168 27.832C374.224 26.68 375.808 26.104 377.92 26.104C380.032 26.104 381.616 26.68 382.672 27.832C383.824 28.888 384.4 30.232 384.4 31.864C384.4 33.4 383.824 34.744 382.672 35.896C381.616 37.048 380.032 37.624 377.92 37.624ZM371.584 121C372.256 121 372.88 120.328 373.456 118.984C374.128 117.64 374.464 115.432 374.464 112.36V62.248C374.464 59.176 374.128 57.016 373.456 55.768C372.88 54.424 372.256 53.704 371.584 53.608H381.952V112.36C381.952 115.432 382.24 117.64 382.816 118.984C383.488 120.328 384.16 121 384.832 121H371.584Z" fill="white"/>
<path d="M425.358 122.44C418.35 122.44 413.694 120.856 411.39 117.688C409.086 114.52 407.934 110.056 407.934 104.296V59.368H394.974V53.608C399.39 53.608 402.654 53.176 404.766 52.312C406.878 51.352 408.27 49.528 408.942 46.84C409.71 44.056 410.094 39.928 410.094 34.456H415.422V53.608H447.246C446.574 53.704 445.902 54.184 445.23 55.048C444.654 55.912 444.366 57.352 444.366 59.368H415.422V104.44C415.422 108.76 416.238 111.88 417.87 113.8C419.502 115.624 422.046 116.536 425.502 116.536C430.014 116.536 433.854 115.768 437.022 114.232C440.286 112.6 442.686 111.208 444.222 110.056V111.64L445.662 116.968C445.374 117.256 444.366 117.832 442.638 118.696C441.006 119.56 438.702 120.376 435.726 121.144C432.846 122.008 429.39 122.44 425.358 122.44Z" fill="white"/>
<path d="M466.337 92.2C465.761 92.2 465.233 91.192 464.753 89.176C464.273 87.064 463.841 84.328 463.457 80.968C463.073 77.608 462.689 73.96 462.305 70.024C462.017 66.088 461.777 62.2 461.585 58.36C461.393 54.424 461.249 50.92 461.153 47.848C461.057 44.68 461.009 42.28 461.009 40.648C461.009 37.864 461.441 35.992 462.305 35.032C463.169 33.976 464.609 33.448 466.625 33.448C468.737 33.448 470.177 33.976 470.945 35.032C471.713 35.992 472.097 37.912 472.097 40.792C472.097 42.328 472.001 44.632 471.809 47.704C471.713 50.776 471.569 54.28 471.377 58.216C471.185 62.056 470.897 65.992 470.513 70.024C470.129 73.96 469.745 77.608 469.361 80.968C468.977 84.328 468.497 87.064 467.921 89.176C467.441 91.192 466.913 92.2 466.337 92.2ZM467.345 121C465.041 121 463.265 120.376 462.017 119.128C460.769 117.88 460.145 116.344 460.145 114.52C460.145 112.696 460.721 111.16 461.873 109.912C463.121 108.664 464.945 108.04 467.345 108.04C469.745 108.04 471.521 108.664 472.673 109.912C473.921 111.16 474.545 112.696 474.545 114.52C474.545 116.344 473.921 117.88 472.673 119.128C471.425 120.376 469.649 121 467.345 121Z" fill="white"/>
<path d="M377.5 0L383.899 19.693H404.605L387.853 31.864L394.252 51.557L377.5 39.386L360.748 51.557L367.147 31.864L350.395 19.693H371.101L377.5 0Z" fill="#EE2662"/>
</svg>
