<?xml version="1.0" encoding="UTF-8"?>
<svg width="32px" height="33px" viewBox="0 0 32 33" version="1.1" xmlns="http://www.w3.org/2000/svg" xmlns:xlink="http://www.w3.org/1999/xlink">
    <!-- Generator: Sketch 43.2 (39069) - http://www.bohemiancoding.com/sketch -->
    <title>user77</title>
    <desc>Created with Sketch.</desc>
    <defs></defs>
    <g id="Boostrap3-grid-system-layouts" stroke="none" stroke-width="1" fill="none" fill-rule="evenodd">
        <g id="Desktop-Copy-4" transform="translate(-229.000000, -546.000000)" fill="#000000">
            <g id="user77" transform="translate(230.000000, 545.842105)">
                <g id="Group" fill="none">
                    <path d="M14.9997368,16.5 C17.2728947,16.5 19.2131579,15.699619 20.8207895,14.099381 C22.4289474,12.4991429 23.2328947,10.568119 23.2328947,8.30604762 C23.2328947,6.0442381 22.4289474,4.11321429 20.8207895,2.51271429 C19.2128947,0.91247619 17.2723684,0.112357143 14.9997368,0.112357143 C12.7271053,0.112357143 10.7865789,0.91247619 9.17868421,2.51271429 C7.57052632,4.11321429 6.76657895,6.0442381 6.76657895,8.30604762 C6.76657895,10.568119 7.57052632,12.4991429 9.17868421,14.099381 C10.7868421,15.699619 12.7271053,16.5 14.9997368,16.5 L14.9997368,16.5 Z" id="Shape" fill="#000000"></path>
                    <path d="M30.0184211,25.1525476 C29.9681579,24.4341429 29.8681579,23.6589048 29.7181579,22.8265714 C29.5681579,21.9942381 29.3784211,21.2226667 29.1497368,20.5113333 C28.9210526,19.8002619 28.6136842,19.1067381 28.2276316,18.4310238 C27.8418421,17.7553095 27.3986842,17.179119 26.8981579,16.7024524 C26.3976316,16.2257857 25.7868421,15.8455 25.0652632,15.5610714 C24.3431579,15.2766429 23.5463158,15.1341667 22.6744737,15.1341667 C22.5457895,15.1341667 22.2455263,15.287119 21.7739474,15.5930238 C21.3023684,15.8989286 20.77,16.2404524 20.1768421,16.6173333 C19.5836842,16.9939524 18.8115789,17.3357381 17.8613158,17.641119 C16.9107895,17.9470238 15.9568421,18.0999762 14.9989474,18.0999762 C14.0413158,18.0999762 13.0873684,17.9470238 12.1368421,17.641119 C11.1865789,17.3357381 10.4144737,16.9939524 9.82131579,16.6173333 C9.22815789,16.2404524 8.69578947,15.8989286 8.22421053,15.5930238 C7.75236842,15.287119 7.45236842,15.1341667 7.32368421,15.1341667 C6.45184211,15.1341667 5.655,15.2766429 4.93315789,15.5610714 C4.21131579,15.8455 3.60026316,16.2260476 3.1,16.7024524 C2.59973684,17.179119 2.15657895,17.7553095 1.77078947,18.4310238 C1.385,19.1067381 1.07763158,19.8005238 0.848947368,20.5113333 C0.620263158,21.2226667 0.430789474,21.9942381 0.280789474,22.8265714 C0.130526316,23.6589048 0.0305263158,24.433881 -0.0194736842,25.1525476 C-0.0694736842,25.8712143 -0.0944736842,26.6071667 -0.0944736842,27.3611905 C-0.0944736842,29.0680238 0.427368421,30.4160476 1.47078947,31.4047381 C2.51421053,32.3931667 3.90078947,32.887381 5.63026316,32.887381 L24.3692105,32.887381 C26.0986842,32.887381 27.485,32.3931667 28.5286842,31.4047381 C29.5723684,30.4160476 30.0939474,29.0682857 30.0939474,27.3611905 C30.0939474,26.6071667 30.0689474,25.8709524 30.0184211,25.1525476 L30.0184211,25.1525476 Z" id="Shape" fill="#000000"></path>
                </g>
            </g>
        </g>
    </g>
</svg>