<?xml version="1.0" encoding="utf-8"?>
<!-- Generator: Adobe Illustrator 22.0.1, SVG Export Plug-In . SVG Version: 6.00 Build 0)  -->
<svg version="1.1" id="Layer_1" xmlns="http://www.w3.org/2000/svg" xmlns:xlink="http://www.w3.org/1999/xlink" x="0px" y="0px"
	 viewBox="0 0 265.6 265.5" style="enable-background:new 0 0 265.6 265.5;" xml:space="preserve">
<style type="text/css">
	.st0{fill:#FFFFFF;}
</style>
<g>
	<path class="st0" d="M239.8,264.3c-6.4,0-12.8-2.4-17.7-7.3L8.6,43.4c-9.8-9.8-9.8-25.6,0-35.4c9.8-9.8,25.6-9.8,35.4,0
		l213.5,213.5c9.8,9.8,9.8,25.6,0,35.4C252.6,261.8,246.2,264.3,239.8,264.3z"/>
</g>
<g>
	<path class="st0" d="M1.3,239.3c0-6.4,2.4-12.8,7.3-17.7L222.1,8.1c9.8-9.8,25.6-9.8,35.4,0c9.8,9.8,9.8,25.6,0,35.4L43.9,257
		c-9.8,9.8-25.6,9.8-35.4,0C3.7,252.1,1.3,245.7,1.3,239.3z"/>
</g>
</svg>
