<?xml version="1.0" encoding="utf-8"?>
<!-- Generator: Adobe Illustrator 22.0.1, SVG Export Plug-In . SVG Version: 6.00 Build 0)  -->
<svg version="1.1" id="Layer_1" xmlns="http://www.w3.org/2000/svg" xmlns:xlink="http://www.w3.org/1999/xlink" x="0px" y="0px"
	 viewBox="0 0 216 217" style="enable-background:new 0 0 216 217;" xml:space="preserve">
<style type="text/css">
	.st0{fill:#E30613;}
</style>
<path class="st0" d="M148.6,1c-36.9,0-66.7,29.9-66.7,66.7c0,5.6,0.7,11.1,2,16.3c-5.2-1.3-10.6-2-16.3-2
	c-36.8,0-66.7,29.9-66.7,66.7c0,36.8,29.9,66.7,66.7,66.7H106v0l109.3,0V114.1V67.7C215.3,30.9,185.4,1,148.6,1z M110,98.2h76.1V117
	H110V98.2z M110,133.3h76.1v18.8H110V133.3z M186.1,187.2H110v-18.8h76.1V187.2z"/>
</svg>
