<?xml version="1.0" encoding="UTF-8"?>
<svg width="126px" height="126px" viewBox="0 0 126 126" version="1.1" xmlns="http://www.w3.org/2000/svg" xmlns:xlink="http://www.w3.org/1999/xlink">
    <!-- Generator: Sketch 43.2 (39069) - http://www.bohemiancoding.com/sketch -->
    <title>instagram3</title>
    <desc>Created with Sketch.</desc>
    <defs></defs>
    <g id="Page-1" stroke="none" stroke-width="1" fill="none" fill-rule="evenodd">
        <g id="instagram3" fill="#000000">
            <path d="M109.522,0.429 L16.479,0.429 C12.079,0.429 8.305,2.005 5.154,5.155 C2.003,8.305 0.428,12.08 0.428,16.479 L0.428,109.521 C0.428,113.92 2.003,117.695 5.154,120.845 C8.305,123.996 12.08,125.572 16.479,125.572 L109.521,125.572 C113.919,125.572 117.695,123.996 120.845,120.845 C123.996,117.695 125.57,113.92 125.57,109.521 L125.57,16.479 C125.57,12.079 123.996,8.306 120.846,5.155 C117.696,2.004 113.92,0.429 109.522,0.429 Z M45.362,45.524 C50.277,40.772 56.184,38.395 63.082,38.395 C70.034,38.395 75.968,40.772 80.884,45.524 C85.799,50.277 88.257,56.021 88.257,62.756 C88.257,69.49 85.799,75.235 80.884,79.986 C75.968,84.739 70.035,87.116 63.082,87.116 C56.184,87.116 50.278,84.738 45.362,79.986 C40.446,75.234 37.988,69.49 37.988,62.756 C37.988,56.021 40.446,50.277 45.362,45.524 L45.362,45.524 Z M111.396,106.182 C111.396,107.593 110.906,108.774 109.929,109.725 C108.95,110.676 107.783,111.151 106.424,111.151 L19.331,111.151 C17.919,111.151 16.737,110.676 15.787,109.725 C14.836,108.776 14.361,107.593 14.361,106.182 L14.361,53.386 L25.848,53.386 C24.762,56.808 24.219,60.366 24.219,64.059 C24.219,74.489 28.021,83.383 35.625,90.743 C43.23,98.102 52.382,101.783 63.082,101.783 C70.143,101.783 76.661,100.098 82.637,96.731 C88.612,93.362 93.335,88.787 96.813,83.002 C100.29,77.217 102.028,70.902 102.028,64.059 C102.028,60.366 101.483,56.809 100.397,53.386 L111.397,53.386 L111.397,106.182 L111.396,106.182 Z M111.396,33.425 C111.396,35 110.853,36.331 109.765,37.417 C108.679,38.504 107.349,39.047 105.773,39.047 L91.597,39.047 C90.023,39.047 88.691,38.504 87.605,37.417 C86.519,36.331 85.976,35 85.976,33.425 L85.976,19.983 C85.976,18.462 86.519,17.145 87.605,16.031 C88.691,14.918 90.023,14.361 91.597,14.361 L105.773,14.361 C107.349,14.361 108.679,14.918 109.765,16.031 C110.853,17.145 111.396,18.462 111.396,19.983 L111.396,33.425 L111.396,33.425 Z" id="Shape" fill="#FFFFFF"></path>
        </g>
    </g>
</svg>