<?xml version="1.0" encoding="utf-8"?>
<!-- Generator: Adobe Illustrator 22.0.1, SVG Export Plug-In . SVG Version: 6.00 Build 0)  -->
<svg version="1.1" id="Layer_1" xmlns="http://www.w3.org/2000/svg" xmlns:xlink="http://www.w3.org/1999/xlink" x="0px" y="0px"
	 viewBox="0 0 483.6 150.3" style="enable-background:new 0 0 483.6 150.3;" xml:space="preserve">
<style type="text/css">
	.Arched_x0020_Green{fill:url(#SVGID_1_);stroke:#FFFFFF;stroke-width:0.25;stroke-miterlimit:1;}
	.st0{fill:#FFFFFF;}
</style>
<linearGradient id="SVGID_1_" gradientUnits="userSpaceOnUse" x1="-180.8333" y1="371.1136" x2="-180.1262" y2="370.4065">
	<stop  offset="0" style="stop-color:#1DA238"/>
	<stop  offset="0.9831" style="stop-color:#24391D"/>
</linearGradient>
<path class="st0" d="M482.4,103v-7c0-5.5-4.5-10-10-10c-5.5,0-10,4.5-10,10c0,0.8,0.1,1.7,0.3,2.4c-0.8-0.2-1.6-0.3-2.4-0.3
	c-5.5,0-10,4.5-10,10c0,5.5,4.5,10,10,10h5.8v0l16.4,0V103L482.4,103z"/>
<g>
	<path class="st0" d="M7.5,29h8.7l6.6-27.8h38L54.2,29h13.4l-5,22.7H49l-7.5,32.6C40,91.3,42,95.3,50,95.3h3.5l-4.7,20.6
		c-4.7,1.4-10.4,2.6-18,2.6C8.2,118.5-2,108.5,3,86.6l8-34.9H2.5L7.5,29z"/>
	<path class="st0" d="M57,94.4C57,72.1,74.7,63,96.2,63c9,0,13.4,0.7,17.5,2.1l1.6-6.4c1.4-6.1-1.4-9.9-10.6-9.9
		c-8.8,0-13.5,3.1-17.7,6.8H70.1L76.2,29c9.7-3.1,20.5-5.7,38.7-5.7c30.2,0,43.9,10.9,38.7,34L145.8,91c-0.3,1.7,1.2,4.3,2.8,4.3
		h3.6l-4,18c-5.7,3-12.5,4.9-21.2,4.9c-11.8,0-17.3-4.9-19.4-12c-7.3,7.6-16.1,11.6-26,11.6C67,117.9,57,109.2,57,94.4z M107.1,93.9
		l3.1-13.7c-1.9-0.7-4.3-1-6.6-1c-6.9,0-10.8,5.2-10.8,11.3c0,4.2,2.4,6.2,6.8,6.2C102.4,96.7,104.7,95.6,107.1,93.9z"/>
	<path class="st0" d="M214.7,94.6l7.8-33.3c1.2-5.4-0.3-8.3-7.5-8.3c-1.9,0-4.9,0.5-7.6,1.4L193,116.6h-33.7c-2.3,0-3.6-2.6-3.1-4.9
		l13.7-59.7c0.3-1.6-0.9-4.3-2.6-4.3h-5.4l4.3-19.3c7.1-2.4,13.9-4.5,26.2-4.5c11.1,0,17.7,5.9,17.5,16.3c9.4-9,21.5-17,34.9-17
		c14.4,0,22,9,18.4,24.8L253.4,91c-0.3,1.7,1,4.3,2.8,4.3h4.5l-4.2,18.2c-5.4,3-13.4,4.7-22.9,4.7
		C217.4,118.2,210.8,110.7,214.7,94.6z"/>
	<path class="st0" d="M252.8,128.3c0-11.5,11.1-16.8,21.3-19.8c-4.5-2.1-8-6.6-8-11.8c0-9.9,6.8-15.4,15.6-19.8
		C275,72.6,271.6,66,271.6,58c0-20.6,16.7-34.7,44.2-34.7c5.6,0,10.6,0.7,15.1,1.7h34.2l-5,22.7H358c-1,0-3,1.2-4,2.4v0.3
		c0,19.6-16.3,33-42.9,33c-7.5,0-13.9-0.7-19.3-2.3c-0.3,1-0.7,2.1-0.7,3.1c0,2.6,1.6,4.7,6.1,4.7h25.7c19.1,0,27.4,8.2,27.4,21.5
		c0,22.7-15.1,37.5-53.8,37.5C264.6,148,252.8,140.9,252.8,128.3z M285.1,116.6c-0.3,1.2-0.5,2.6-0.5,4c0,5.6,1.9,7.6,13.5,7.6
		c10.4,0,18.6-2.6,18.6-7.8c0-2.6-1.4-3.8-6.6-3.8H285.1z M322.1,48.5c0-4.7-2.6-6.9-6.6-6.9c-5.4,0-10.4,7.3-10.4,18
		c0,5,2.1,7.8,6.1,7.8C316.7,67.4,322.1,59.6,322.1,48.5z"/>
	<path class="st0" d="M356.6,77.8c0-29.5,21.7-54.5,54.3-54.5c29.2,0,46,15.6,46,40.4c0,29.7-21.2,54.5-54.3,54.5
		C373.4,118.2,356.6,102.9,356.6,77.8z M419.6,60.3c0-8.2-3.3-12.3-9.2-12.3c-10.4,0-16.7,19.4-16.7,35.2c0,8.3,3.1,12.5,9.2,12.5
		C413.3,95.6,419.6,76.2,419.6,60.3z"/>
</g>
</svg>
