<?xml version="1.0" encoding="UTF-8"?>
<svg width="30px" height="25px" viewBox="0 0 30 25" version="1.1" xmlns="http://www.w3.org/2000/svg" xmlns:xlink="http://www.w3.org/1999/xlink">
    <!-- Generator: Sketch 43.2 (39069) - http://www.bohemiancoding.com/sketch -->
    <title>font2</title>
    <desc>Created with Sketch.</desc>
    <defs></defs>
    <g id="Boostrap3-grid-system-layouts" stroke="none" stroke-width="1" fill="none" fill-rule="evenodd">
        <g id="Desktop-Copy-4" transform="translate(-230.000000, -475.000000)" fill="#000000">
            <g id="font2" transform="translate(230.000000, 476.000000)">
                <g id="Group" fill="none">
                    <path d="M23.3038356,14.7377544 C23.0804795,14.650193 22.8850685,14.6887281 22.7178082,14.8527544 L21.6462329,15.9049035 C21.5459589,16.0033596 21.495411,16.1240088 21.495411,16.2664474 L21.495411,18.3376579 C21.495411,19.0611491 21.2336301,19.6801316 20.7090411,20.1952105 C20.1842466,20.7102895 19.5538356,20.9677281 18.8171918,20.9677281 L4.88856164,20.9677281 C4.15191781,20.9677281 3.52130137,20.7102895 2.99671233,20.1952105 C2.47212329,19.6801316 2.20993151,19.0611491 2.20993151,18.3376579 L2.20993151,4.66173684 C2.20993151,3.93844737 2.47212329,3.31926316 2.99671233,2.80418421 C3.52130137,2.28910526 4.15191781,2.03166667 4.88856164,2.03166667 L18.8173973,2.03166667 C19.0629452,2.03166667 19.3140411,2.06455263 19.5706849,2.13032456 C19.7718493,2.19609649 19.9502055,2.15231579 20.1063699,1.9987807 L20.9264384,1.19337719 C21.060411,1.06203509 21.1105479,0.903052632 21.0770548,0.716833333 C21.0435616,0.541508772 20.9430822,0.415412281 20.7756164,0.338745614 C20.1729452,0.0651666667 19.520137,-0.0722280702 18.8169863,-0.0722280702 L4.88856164,-0.0722280702 C3.56054795,-0.0722280702 2.42486301,0.390798246 1.48171233,1.31685088 C0.538767123,2.24290351 0.0671917808,3.35779825 0.0671917808,4.6619386 L0.0671917808,18.3380614 C0.0671917808,19.642 0.538767123,20.7568947 1.48171233,21.6829474 C2.42486301,22.6092018 3.56054795,23.0722281 4.88856164,23.0722281 L18.8169863,23.0722281 C20.145,23.0722281 21.2806849,22.6092018 22.2238356,21.6829474 C23.1669863,20.7568947 23.6385616,19.642 23.6385616,18.3380614 L23.6385616,15.2149035 C23.6385616,14.9845 23.5267808,14.8257193 23.3038356,14.7377544 L23.3038356,14.7377544 Z" id="Shape" fill="#000000"></path>
                    <path d="M10.7813014,14.1300702 L10.7813014,18.8640351 L15.6028767,18.8640351 L26.8528767,7.81798246 L22.0313014,3.08401754 L10.7813014,14.1300702 L10.7813014,14.1300702 Z M14.9330137,17.286114 L14.9330137,17.286114 L13.995411,17.2859123 L13.995411,15.708193 L12.3883562,15.708193 L12.3883562,14.7877895 L14.3303425,12.8810088 L16.875,15.3797368 L14.9330137,17.286114 L14.9330137,17.286114 Z M22.2823973,5.99331579 L16.4227397,11.7465439 C16.2330822,11.9331667 16.0489726,11.9384123 15.870411,11.7630877 C15.6918493,11.5877632 15.6973973,11.4069912 15.8872603,11.2207719 L21.7467123,5.46754386 C21.9363699,5.28112281 22.120274,5.27567544 22.2990411,5.451 C22.4780137,5.62632456 22.4718493,5.80709649 22.2823973,5.99331579 L22.2823973,5.99331579 Z" id="Shape" fill="#000000"></path>
                    <path d="M29.4643151,3.01824561 L26.919863,0.519719298 C26.6073288,0.212850877 26.2280137,0.0595175439 25.7813014,0.0595175439 C25.335,0.0595175439 24.9554795,0.212850877 24.6431507,0.519719298 L23.1028767,2.03186842 L27.9244521,6.76603509 L29.4643151,5.25368421 C29.7768493,4.94701754 29.9330137,4.57437719 29.9330137,4.13596491 C29.9330137,3.69755263 29.7768493,3.32511404 29.4643151,3.01824561 L29.4643151,3.01824561 Z" id="Shape" fill="#000000"></path>
                </g>
            </g>
        </g>
    </g>
</svg>