<svg id="Layer_1" data-name="Layer 1" xmlns="http://www.w3.org/2000/svg" viewBox="0 0 480.69 146.78"><defs><style>.cls-1{fill:#e30613;}.cls-2{fill:#1d1d1b;}</style></defs><title>Artboard 1</title><path class="cls-1" d="M480.69,101.71v-7a10,10,0,1,0-19.76,2.45,10,10,0,1,0-2.44,19.75h22.2V101.71Z"/><path class="cls-2" d="M5.78,27.76h8.67L21,0H59L52.45,27.76H65.81l-5,22.73H47.25L39.77,83.11C38.21,90,40.29,94,48.28,94h3.47l-4.68,20.65a61.34,61.34,0,0,1-18,2.6c-22.55,0-32.79-10.06-27.76-31.92l8-34.87H.75Z"/><path class="cls-2" d="M55.21,93.17c0-22.38,17.7-31.41,39.21-31.41,9,0,13.36.69,17.52,2.08l1.56-6.42c1.39-6.07-1.39-9.89-10.58-9.89-8.85,0-13.53,3.12-17.7,6.77H68.4l6.07-26.54C84.18,24.64,94.94,22,113.16,22c30.19,0,43.9,10.93,38.69,34L144,89.7c-.35,1.73,1.21,4.34,2.78,4.34h3.64l-4,18a44.87,44.87,0,0,1-21.17,4.86c-11.8,0-17.35-4.86-19.43-12-7.29,7.63-16.14,11.62-26,11.62C65.27,116.59,55.21,107.92,55.21,93.17Zm50.14-.52,3.12-13.7a20.11,20.11,0,0,0-6.59-1c-6.94,0-10.76,5.21-10.76,11.28,0,4.16,2.43,6.25,6.77,6.25A12.4,12.4,0,0,0,105.35,92.65Z"/><path class="cls-2" d="M212.91,93.34,220.72,60c1.21-5.38-.35-8.33-7.46-8.33a28.59,28.59,0,0,0-7.64,1.39l-14.4,62.29H157.57c-2.26,0-3.64-2.6-3.12-4.86l13.71-59.68c.35-1.56-.87-4.34-2.6-4.34h-5.38l4.34-19.26a71.26,71.26,0,0,1,26.2-4.51c11.1,0,17.7,5.9,17.52,16.31,9.37-9,21.51-17,34.88-17,14.4,0,22,9,18.39,24.81L251.6,89.7c-.35,1.73,1,4.34,2.78,4.34h4.51l-4.17,18.22c-5.38,3-13.36,4.69-22.9,4.69C215.69,116.94,209.09,109.48,212.91,93.34Z"/><path class="cls-2" d="M251.07,127c0-11.45,11.11-16.83,21.34-19.78a13.36,13.36,0,0,1-8-11.8c0-9.89,6.77-15.44,15.62-19.78a21.5,21.5,0,0,1-10.24-18.91c0-20.65,16.66-34.7,44.24-34.7a66.85,66.85,0,0,1,15.09,1.74h34.18l-5,22.73h-2.08c-1,0-3,1.21-4,2.43v.35c0,19.61-16.31,33-42.86,33A69.84,69.84,0,0,1,290.11,80a10.16,10.16,0,0,0-.69,3.12c0,2.6,1.56,4.69,6.07,4.69h25.68c19.09,0,27.42,8.15,27.42,21.51,0,22.73-15.1,37.48-53.79,37.48C262.87,146.78,251.07,139.67,251.07,127Zm32.27-11.62a14.77,14.77,0,0,0-.52,4c0,5.55,1.91,7.63,13.53,7.63,10.41,0,18.56-2.6,18.56-7.81,0-2.6-1.39-3.82-6.59-3.82Zm37-68.19c0-4.69-2.6-6.94-6.59-6.94-5.38,0-10.41,7.29-10.41,18,0,5,2.08,7.81,6.07,7.81C314.92,66.1,320.3,58.3,320.3,47.19Z"/><path class="cls-2" d="M354.82,76.51C354.82,47,376.51,22,409.13,22c29.15,0,46,15.62,46,40.43,0,29.67-21.17,54.48-54.31,54.48C371.65,116.94,354.82,101.67,354.82,76.51ZM417.8,59c0-8.16-3.3-12.32-9.2-12.32C398.2,46.67,392,66.1,392,81.89c0,8.33,3.12,12.49,9.19,12.49C411.56,94.39,417.8,75,417.8,59Z"/></svg>