<?xml version="1.0" encoding="UTF-8"?>
<svg width="126px" height="126px" viewBox="0 0 126 126" version="1.1" xmlns="http://www.w3.org/2000/svg" xmlns:xlink="http://www.w3.org/1999/xlink">
    <!-- Generator: Sketch 43.2 (39069) - http://www.bohemiancoding.com/sketch -->
    <title>facebook26</title>
    <desc>Created with Sketch.</desc>
    <defs></defs>
    <g id="Page-1" stroke="none" stroke-width="1" fill="none" fill-rule="evenodd">
        <g id="facebook26" fill="#000000">
            <path d="M118.686,7.313 C114.098,2.724 108.571,0.429 102.108,0.429 L23.893,0.429 C17.43,0.429 11.903,2.724 7.313,7.313 C2.724,11.903 0.429,17.43 0.429,23.893 L0.429,102.107 C0.429,108.57 2.724,114.097 7.313,118.687 C11.903,123.277 17.43,125.572 23.893,125.572 L102.107,125.572 C108.57,125.572 114.097,123.277 118.685,118.687 C123.275,114.097 125.57,108.57 125.57,102.107 L125.57,23.893 C125.57,17.43 123.275,11.902 118.686,7.313 L118.686,7.313 Z M106.914,64.792 L92.656,64.792 L92.656,116.527 L71.31,116.527 L71.31,64.792 L60.637,64.792 L60.637,46.949 L71.31,46.949 L71.31,36.276 C71.31,28.617 73.103,22.833 76.687,18.922 C80.271,15.011 86.191,13.056 94.448,13.056 L108.706,13.056 L108.706,30.899 L99.745,30.899 C96.703,30.899 94.761,31.428 93.919,32.488 C93.077,33.547 92.656,35.407 92.656,38.069 L92.656,46.949 L108.788,46.949 L106.914,64.792 L106.914,64.792 Z" id="Shape" fill="#FFFFFF"></path>
        </g>
    </g>
</svg>