<?xml version="1.0" encoding="UTF-8"?>
<svg width="126px" height="126px" viewBox="0 0 126 126" version="1.1" xmlns="http://www.w3.org/2000/svg" xmlns:xlink="http://www.w3.org/1999/xlink">
    <!-- Generator: Sketch 43.2 (39069) - http://www.bohemiancoding.com/sketch -->
    <title>linkedin9</title>
    <desc>Created with Sketch.</desc>
    <defs></defs>
    <g id="Page-1" stroke="none" stroke-width="1" fill="none" fill-rule="evenodd">
        <g id="linkedin9" fill="#000000">
            <path d="M118.686,7.313 C114.098,2.724 108.571,0.429 102.108,0.429 L23.893,0.429 C17.43,0.429 11.903,2.724 7.313,7.313 C2.724,11.903 0.429,17.43 0.429,23.893 L0.429,102.107 C0.429,108.57 2.724,114.097 7.313,118.687 C11.903,123.277 17.43,125.572 23.893,125.572 L102.107,125.572 C108.57,125.572 114.097,123.277 118.685,118.687 C123.275,114.097 125.57,108.57 125.57,102.107 L125.57,23.893 C125.57,17.43 123.275,11.902 118.686,7.313 L118.686,7.313 Z M38.558,105.203 L19.738,105.203 L19.738,48.66 L38.558,48.66 L38.558,105.203 L38.558,105.203 Z M36.848,38.192 C34.893,40.066 32.313,41.003 29.108,41.003 L29.026,41.003 C25.93,41.003 23.419,40.066 21.49,38.192 C19.561,36.318 18.597,33.996 18.597,31.226 C18.597,28.402 19.589,26.066 21.571,24.219 C23.554,22.372 26.12,21.448 29.27,21.448 C32.42,21.448 34.946,22.372 36.847,24.219 C38.748,26.066 39.726,28.402 39.78,31.226 C39.78,33.995 38.803,36.317 36.848,38.192 L36.848,38.192 Z M106.262,105.203 L87.442,105.203 L87.442,74.977 C87.442,66.451 84.292,62.186 77.991,62.186 C75.602,62.186 73.592,62.851 71.963,64.182 C70.332,65.512 69.11,67.129 68.296,69.03 C67.916,70.008 67.726,71.528 67.726,73.592 L67.726,105.203 L48.906,105.203 C49.069,71.093 49.069,52.245 48.906,48.66 L67.726,48.66 L67.726,56.643 C71.683,50.456 77.302,47.356 84.591,47.356 C91.109,47.356 96.351,49.502 100.316,53.792 C104.281,58.083 106.263,64.411 106.263,72.774 L106.263,105.203 L106.262,105.203 Z" id="Shape" fill="#FFFFFF"></path>
        </g>
    </g>
</svg>