<?xml version="1.0" encoding="UTF-8"?>
<svg width="156px" height="125px" viewBox="0 0 156 125" version="1.1" xmlns="http://www.w3.org/2000/svg" xmlns:xlink="http://www.w3.org/1999/xlink">
    <!-- Generator: Sketch 43.2 (39069) - http://www.bohemiancoding.com/sketch -->
    <title>tags2</title>
    <desc>Created with Sketch.</desc>
    <defs></defs>
    <g id="Page-1" stroke="none" stroke-width="1" fill="none" fill-rule="evenodd">
        <g id="Font-Awesome-Icon-Pack" transform="translate(-678.000000, -1968.000000)" fill="#000000">
            <g id="tags2" transform="translate(678.843750, 1968.500000)">
                <g id="Group" fill="none">
                    <path d="M123.073,73.284 C123.073,70.46 122.068,67.988 120.058,65.869 L61.805,7.697 C59.741,5.632 56.971,3.881 53.495,2.442 C50.019,1.003 46.841,0.283 43.962,0.283 L10.069,0.283 C7.245,0.283 4.8,1.316 2.737,3.379 C0.672,5.443 -0.36,7.887 -0.36,10.712 L-0.36,44.605 C-0.36,47.484 0.359,50.66 1.799,54.137 C3.239,57.614 4.991,60.356 7.054,62.366 L65.308,120.701 C67.318,122.711 69.762,123.716 72.64,123.716 C75.465,123.716 77.937,122.711 80.055,120.701 L120.059,80.616 C122.068,78.605 123.073,76.163 123.073,73.284 L123.073,73.284 Z M33.086,33.728 C31.049,35.765 28.591,36.784 25.712,36.784 C22.834,36.784 20.376,35.765 18.339,33.728 C16.302,31.691 15.284,29.234 15.284,26.355 C15.284,23.476 16.302,21.018 18.339,18.982 C20.376,16.945 22.834,15.926 25.712,15.926 C28.591,15.926 31.049,16.945 33.086,18.982 C35.122,21.018 36.141,23.476 36.141,26.355 C36.141,29.234 35.122,31.691 33.086,33.728 L33.086,33.728 Z" id="Shape" fill="#000000"></path>
                    <path d="M151.343,65.87 L93.09,7.698 C91.026,5.633 88.256,3.882 84.779,2.443 C81.304,1.004 78.126,0.284 75.247,0.284 L56.997,0.284 C59.876,0.284 63.053,1.004 66.529,2.443 C70.006,3.883 72.776,5.634 74.84,7.698 L133.093,65.87 C135.104,67.988 136.11,70.46 136.11,73.284 C136.11,76.163 135.104,78.605 133.093,80.616 L94.801,118.909 C96.432,120.593 97.87,121.814 99.119,122.575 C100.368,123.336 101.971,123.716 103.926,123.716 C106.751,123.716 109.223,122.711 111.34,120.701 L151.343,80.616 C153.354,78.605 154.36,76.163 154.36,73.284 C154.359,70.46 153.354,67.988 151.343,65.87 L151.343,65.87 Z" id="Shape" fill="#000000"></path>
                </g>
            </g>
        </g>
    </g>
</svg>